<svg id="Layer_2" data-name="Layer 2" xmlns="http://www.w3.org/2000/svg" viewBox="0 0 308.81 586.44"><defs><style>.cls-1{fill:#691faa;}.cls-2{fill:#7c49bf;}</style></defs><title>android_symbol</title><path class="cls-1" d="M914.53,230.51c2.42-11.39,13-20.41,26.71-22.73h0L912.59,287.1Z" transform="translate(-720.72 -207.56)"/><path class="cls-2" d="M912.59,287.1,922,227.29a23.47,23.47,0,0,1,19.27-19.51h0A16.07,16.07,0,0,1,960,223.63h0a31.74,31.74,0,0,1-8.49,21.61Z" transform="translate(-720.72 -207.56)"/><path class="cls-2" d="M811.18,318.48l-52.44-30.94c-8.74-5.16-20.86-3.27-30.1,4.69h0c-9.12,7.85-10.62,21-3.15,27.58h0c6,5.3,14.25,7.63,23,6.53Z" transform="translate(-720.72 -207.56)"/><path class="cls-1" d="M812.34,318.22,752,325.88c-11.85,0-46.55,0-23.41-33.66l.34,6.63a12.15,12.15,0,0,0,3.74,8.24l.18.17a32,32,0,0,0,20.52,8.54l16.59.69Z" transform="translate(-720.72 -207.56)"/><path class="cls-1" d="M785.1,449.35v18l38.12,17.49,22.09-79.17a38.76,38.76,0,0,1,15-21.22l41-39.83-20,2.48c-45,5.61-83.64,39.83-94,83.33h0A81.43,81.43,0,0,0,785.1,449.35Z" transform="translate(-720.72 -207.56)"/><path class="cls-1" d="M848,402l11-16.33,17-5,18.67,7.67,6.67,24.58-5.05,21.75-16.62,7.67L859,440l3.31-1.69c10.69-2,17-9.31,18.91-18.54a32.89,32.89,0,0,0-2-14.52c-2.2-5.31-7.86-10.08-10.2-11.32h0a12.1,12.1,0,0,0-13.67,1.59Z" transform="translate(-720.72 -207.56)"/><path class="cls-1" d="M906.9,386.08l12.26-17.92,18.94-5.49,20.8,8.41,7.43,27-5.63,23.87-18.51,8.41-23-2.56,3.69-1.85c11.91-2.17,19-10.22,21.07-20.35,0,0,.85-9.49-2.17-16.82-2.51-6.1-8.66-10.11-11.39-11.53h0A13.65,13.65,0,0,0,915.13,379Z" transform="translate(-720.72 -207.56)"/><path class="cls-2" d="M895.1,345.4a106.43,106.43,0,0,0-25.25,7.89L853.7,363.72a92.62,92.62,0,0,0-30.47,59.87v61.26L990.59,435.6S990,406.5,974,380.67c-6.7-10.8-17.81-27.17-35.7-33.26C920.06,341.21,895.1,345.4,895.1,345.4Zm-18.74,91.25c-20.52,1.16-30.21-25-22.89-40.91,3-6.48,8.8-11.24,17.87-11.73C900.94,382.42,903.53,435.11,876.36,436.64Zm62-16c-26.28,4.81-38.5-46.36-8.33-51.33C959.89,364.41,963.63,416,938.33,420.67Z" transform="translate(-720.72 -207.56)"/><path class="cls-1" d="M978.55,518,843,556.29a49,49,0,0,0-35.53,51.5L821.89,772,963,723.19a48.14,48.14,0,0,0,32.13-50.63Z" transform="translate(-720.72 -207.56)"/><path class="cls-2" d="M1012.67,540,877.09,578.29a49,49,0,0,0-35.53,51.5L856,794l141.12-48.81a48.14,48.14,0,0,0,32.13-50.63Z" transform="translate(-720.72 -207.56)"/></svg>