<svg id="Layer_2" data-name="Layer 2" xmlns="http://www.w3.org/2000/svg" viewBox="0 0 71 144.73">
<defs>
<style>
.cls-1{fill:#691faa;}.cls-2{fill:#7c49bf;}.cls-3,.cls-4{fill:#bb8dcc;}.cls-4{stroke:#231f20;stroke-linecap:round;stroke-miterlimit:10;}
</style>
</defs>
<title>phone_symbol</title>
<path id="dark" class="cls-1" d="M974.89,467.87,935.35,474a11.8,11.8,0,0,0-6.52,3.3l-.88.87a11.71,11.71,0,0,0-3.45,8.3V598.52a11.71,11.71,0,0,0,4.11,8.91l2.47,2.11a11.82,11.82,0,0,0,9.2,2.73l43.63-5.68a11.79,11.79,0,0,0,8-4.76l1.34-1.84a11.7,11.7,0,0,0,2.23-6.87v-112a11.72,11.72,0,0,0-5-9.57l-3.21-2.27C984.81,467.53,977.92,467.4,974.89,467.87Z" transform="translate(-924.5 -467.63)"/>
<path class="cls-2" d="M993.59,475.45a3.86,3.86,0,0,0-2.39-2.23l-4.31-1.38a3.85,3.85,0,0,0-1.11-.18,80.36,80.36,0,0,0-9.67.29l-37.22,5.89a11,11,0,0,0-6.14,3.18l-.83.84a11.41,11.41,0,0,0-3.25,8V597.79a16.29,16.29,0,0,0,4.66,10.33l2.87,2.71a3.84,3.84,0,0,0,2.57,1c3.78.07-1.16,0,1.92.48L964,609.15c15.89-2,19.2-2,23.1-3l0,0a4.5,4.5,0,0,1,2.43-1.1,4.37,4.37,0,0,1,1.74-1.06l.29-.24c.08-.09.15-.2.23-.29a4.09,4.09,0,0,1,1-.77c.4-.69.83-1.38,1.28-2.06a5.48,5.48,0,0,1,1-2.62,11.19,11.19,0,0,1,.35-2.49c.07-3.7.11-7.9.11-8.19V484.73C995.5,481.45,995.42,479.93,993.59,475.45Z" transform="translate(-924.5 -467.63)"/>
<polygon id="screen" class="cls-3" points="8.5 23.36 66.83 15.37 66.83 123.03 8.5 131.37 8.5 23.36"/>
<ellipse class="cls-4" cx="15.31" cy="17.2" rx="2.02" ry="2.38"/></svg>