<svg id="Layer_2" data-name="Layer 2" xmlns="http://www.w3.org/2000/svg" viewBox="0 0 678.57 535.27"><defs><style>.cls-1{fill:#6e1d9e;}.cls-2{fill:#9155bc;}.cls-3,.cls-8{fill:#fff;opacity:0.4;}.cls-4{fill:#dd3a3a;}.cls-4,.cls-5,.cls-6,.cls-8{stroke:#;}.cls-4,.cls-5,.cls-6,.cls-7,.cls-8,.cls-9{stroke-miterlimit:10;}.cls-4,.cls-5,.cls-6{stroke-width:5px;}.cls-5{fill:#e8c600;}.cls-6{fill:#20ff3f;}.cls-7{stroke:#231f20;stroke-linecap:round;stroke-width:7px;opacity:0.56;}.cls-9{stroke:#000;}</style></defs><title>website_symbol</title><path class="cls-1" d="M541.34,379.28a111.63,111.63,0,0,0-9,50.93L545.54,680.3c3.7,59.3,58.6,122.3,117.61,114.17l463.07-80.66c70-9.64,87.13-50.68,81.42-120.95L1191,388c-8.77-97-58-133.29-135.17-127.44-15.48,1.18-61.85,8.25-68.05,9.15l-345.57,50C589.15,327.05,557.93,341.65,541.34,379.28Z" transform="translate(-532.14 -259.91)"/><path class="cls-2" d="M1109.08,717.58,685.47,793.09c-49.89,5.57-80.73,1.29-82.76-72.34L587.24,443.37A81,81,0,0,1,603,390c13.59-18,34.63-29.86,70.29-37l401.51-56.18c13.3-1.76,38.83-3.72,52.25-3.77,23.26-.08,58,22.27,62.93,77.1,5.55,61.16-5-54.83,7.79,89.9l10.28,117.58C1216.92,684.59,1208.08,696.58,1109.08,717.58Z" transform="translate(-532.14 -259.91)"/><polygon class="cls-3" points="388.95 200.51 390.95 222.6 599.44 196.51 597.44 172.1 388.95 200.51"/><ellipse class="cls-4" cx="118.36" cy="140.4" rx="12.7" ry="13.52"/><circle class="cls-5" cx="194.81" cy="129.03" r="13.14"/><circle class="cls-6" cx="271.68" cy="120.9" r="13.52"/><line class="cls-7" x1="638.87" y1="130.67" x2="75.88" y2="213.53"/><path class="cls-8" d="M616.57,555.08l2.71,63.09c1.44,33.5,21.88,57.74,43.9,52.09C766.44,643.76,765,632.93,765,632.93l-2.18-41.1C759.37,527,720.22,480,677.38,489.26l-28.63,6.2C629.32,499.67,615.3,525.63,616.57,555.08Z" transform="translate(-532.14 -259.91)"/><path d="M641.53,586.53l4.52,64.57c2.4,34.29,36.41,59.1,73.07,53.32C891,677.3,888.59,666.21,888.59,666.21L885,624.15c-5.73-66.36-70.9-114.47-142.2-105l-47.66,6.35C662.75,529.82,639.43,556.39,641.53,586.53Z" transform="translate(-532.14 -259.91)"/><polygon points="402.95 206.09 404.95 228.18 613.45 202.09 611.45 177.68 402.95 206.09"/><polygon class="cls-3" points="396.77 261.21 398.77 283.31 607.26 257.21 605.26 232.81 396.77 261.21"/><polygon class="cls-9" points="410.58 268.91 412.58 293 621.07 265.91 619.07 240.5 410.58 268.91"/><polygon class="cls-3" points="402.95 321.92 404.95 344.01 613.45 317.92 611.45 293.52 402.95 321.92"/><polygon points="418.44 330.99 420.44 353.08 628.93 325.99 626.93 302.59 418.44 330.99"/></svg>